<svg xmlns="http://www.w3.org/2000/svg" viewBox="0 0 512 512" fill="none">
  <rect width="512" height="512" rx="96" fill="#0d1117"/>
  <rect x="2" y="2" width="508" height="508" rx="94" stroke="#e94560" stroke-width="4" fill="none"/>
  <g transform="translate(128, 80)">
    <!-- Handle -->
    <path d="M100 0 L100 30 Q100 50 120 50 L140 50 Q160 50 160 30 L160 0" 
          stroke="#e94560" stroke-width="14" stroke-linecap="round" fill="none"/>
    <line x1="90" y1="0" x2="170" y2="0" stroke="#e94560" stroke-width="14" stroke-linecap="round"/>
    <!-- Body -->
    <path d="M60 70 L80 300 Q82 320 100 320 L260 320 Q278 320 280 300 L300 70 Z" 
          stroke="#e94560" stroke-width="12" fill="rgba(233,69,96,0.1)"/>
    <!-- Lines -->
    <line x1="130" y1="110" x2="140" y2="270" stroke="#e94560" stroke-width="8" stroke-linecap="round" opacity="0.6"/>
    <line x1="170" y1="110" x2="180" y2="270" stroke="#e94560" stroke-width="8" stroke-linecap="round" opacity="0.6"/>
    <line x1="210" y1="110" x2="220" y2="270" stroke="#e94560" stroke-width="8" stroke-linecap="round" opacity="0.6"/>
    <!-- Bottom -->
    <line x1="50" y1="330" x2="310" y2="330" stroke="#e94560" stroke-width="12" stroke-linecap="round"/>
  </g>
</svg>
